<svg width="40" height="38" viewBox="0 0 40 38" fill="none" xmlns="http://www.w3.org/2000/svg">
<rect width="40" height="37.5" rx="5" fill="#14121F"/>
<g clip-path="url(#clip0_262_42)">
<path d="M20.7879 12.8276C17.7985 12.9419 10.3834 13.8115 10.3834 20.2861C10.3834 27.2368 18.8728 27.5225 21.6473 23.0283C22.0463 23.6758 23.8203 25.4087 24.428 25.999L27.9146 22.4443C27.9146 22.4443 25.9319 20.8384 25.9319 19.0928V9.75537C25.9319 8.14941 24.428 4.53125 19.0385 4.53125C13.6367 4.53125 10.7701 8.02246 10.7701 11.1519L15.2818 11.5835C16.2824 8.44141 18.6088 8.44141 18.6088 8.44141C21.1071 8.43506 20.7879 10.333 20.7879 12.8276ZM20.7879 18.3374C20.7879 23.4155 15.6194 22.6538 15.6194 19.4292C15.6194 16.4331 18.7193 15.8301 20.7879 15.7603V18.3374ZM29.1362 28.7158C28.6635 29.3506 24.8393 32.9688 18.4247 32.9688C12.01 32.9688 7.09933 28.4302 5.59542 26.5576C5.17801 26.0688 5.6568 25.8403 5.93303 26.0308C10.4325 28.8555 17.4609 33.5083 28.7985 27.9541C29.2589 27.7192 29.615 28.0811 29.1362 28.7158ZM31.5792 28.8555C31.1802 29.8584 30.5971 30.5566 30.2779 30.8232C29.9403 31.1089 29.6947 30.9946 29.8789 30.582C30.0631 30.1694 31.0636 27.6304 30.6585 27.0908C30.2595 26.564 28.3873 26.8179 27.712 26.8877C27.0491 26.9512 26.9141 27.0146 26.8527 26.8687C26.7115 26.5068 28.1847 25.8848 29.1546 25.7578C30.1183 25.6436 31.6713 25.707 31.9782 26.1196C32.2054 26.4434 31.9782 27.8398 31.5792 28.8555Z" fill="white"/>
</g>
<defs>
<clipPath id="clip0_262_42">
<rect width="27.5" height="32.5" fill="white" transform="translate(5 2.5)"/>
</clipPath>
</defs>
</svg>
